/* XPM */
static char *result[] = {
/* columns rows colors chars-per-pixel */
"38 26 2 1 ",
"  c black",
". c None",
/* pixels */
"........................  ............",
"........................  ............",
"......................  ..  ..........",
"......................  ..  ..........",
"............................  ........",
"............................  ........",
"......................  ......  ......",
"......................  ......  ......",
"................................  ....",
"................................  ....",
"..  ..  ..  ..  ..  ..  ..........  ..",
"..  ..  ..  ..  ..  ..  ..........  ..",
"  ..................................  ",
"  ..................................  ",
"..  ..  ..  ..  ..  ..  ..........  ..",
"..  ..  ..  ..  ..  ..  ..........  ..",
"................................  ....",
"................................  ....",
"......................  ......  ......",
"......................  ......  ......",
"............................  ........",
"............................  ........",
"......................  ..  ..........",
"......................  ..  ..........",
"........................  ............",
"........................  ............"
};
