/* XPM */
static char *result[] = {
/* columns rows colors chars-per-pixel */
"26 38 2 1 ",
"  c black",
". c None",
/* pixels */
"............  ............",
"............  ............",
"..........  ..  ..........",
"..........  ..  ..........",
"..........................",
"..........................",
"..........  ..  ..........",
"..........  ..  ..........",
"..........................",
"..........................",
"..........  ..  ..........",
"..........  ..  ..........",
"..........................",
"..........................",
"..........  ..  ..........",
"..........  ..  ..........",
"..........................",
"..........................",
"..........  ..  ..........",
"..........  ..  ..........",
"..........................",
"..........................",
"..  ..  ..  ..  ..  ..  ..",
"..  ..  ..  ..  ..  ..  ..",
"  ......................  ",
"  ......................  ",
"..  ..................  ..",
"..  ..................  ..",
"....  ..............  ....",
"....  ..............  ....",
"......  ..........  ......",
"......  ..........  ......",
"........  ......  ........",
"........  ......  ........",
"..........  ..  ..........",
"..........  ..  ..........",
"............  ............",
"............  ............"
};
