/* XPM */
static char *e945878266a647c4a79db0ba06fddd17pN33HcGLuMx5A1Bi[] = {
/* columns rows colors chars-per-pixel */
"50 50 2 1 ",
"  c #2196F3",
". c white",
/* pixels */
"..................................................",
".                                                .",
".                                                .",
".                                                .",
".                                                .",
".                                                .",
".                                                .",
".                                                .",
".                                                .",
".                                                .",
".                                                .",
".                                                .",
".                                                .",
".                                                .",
".                                                .",
".                                                .",
".                                                .",
".                                                .",
".                                                .",
".                                                .",
".                                                .",
".                                                .",
".                                                .",
".                                                .",
".                                                .",
".                                                .",
".                                                .",
".                                                .",
".                                                .",
".                                                .",
".                                                .",
".                                                .",
".                                                .",
".                                                .",
".                                                .",
".                                                .",
".                                                .",
".                                                .",
".                                                .",
".                                                .",
".                                                .",
".                                                .",
".                                                .",
".                                                .",
".                                                .",
".                                                .",
".                                                .",
".                                                .",
".                                                .",
".................................................."
};
