/* XPM */
static char *_beba9da2b714e24aa4af6061305d31e7RxrGzKP7ofmz4WD[] = {
/* columns rows colors chars-per-pixel */
"44 44 2 1 ",
"  c None",
". c #E53935",
/* pixels */
"....................................        ",
"....................................        ",
"....................................  ..    ",
"....................................  ..    ",
"....................................  ......",
"....................................  ......",
"....................................  ..  ..",
"....................................  ..  ..",
"....................................      ..",
"....................................      ..",
"                                          ..",
"                                          ..",
"                                      ....  ",
"                                      ....  ",
"                                  ....      ",
"                                  ....      ",
"                              ....          ",
"                              ....          ",
"                          ....              ",
"                          ....              ",
"                      ....                  ",
"                      ....                  ",
"                ......                      ",
"                ......                      ",
"                ..                          ",
"                ..                          ",
"              ......                        ",
"              ......                        ",
"              ......                        ",
"              ......                        ",
"              ......                        ",
"              ......                        ",
"              ......                        ",
"              ......                        ",
"              ......                        ",
"              ......                        ",
"              ......                        ",
"              ......                        ",
"              ......                        ",
"              ......                        ",
"              ......                        ",
"              ......                        ",
"              ......                        ",
"              ......                        "
};
