/* XPM */
static char *_319fd1aaa084a5e97f6d19700a51cc0by9UvRm2098n68lY[] = {
/* columns rows colors chars-per-pixel */
"44 44 2 1 ",
"  c None",
". c #8BC34A",
/* pixels */
"....................................        ",
"....................................        ",
"....................................  ..    ",
"....................................  ..    ",
"....................................  ......",
"....................................  ......",
"....................................  ..  ..",
"....................................  ..  ..",
"....................................      ..",
"....................................      ..",
"                                          ..",
"                                          ..",
"                                      ....  ",
"                                      ....  ",
"                                  ....      ",
"                                  ....      ",
"                              ....          ",
"                              ....          ",
"                          ....              ",
"                          ....              ",
"                      ....                  ",
"                      ....                  ",
"                ......                      ",
"                ......                      ",
"                ..                          ",
"                ..                          ",
"              ......                        ",
"              ......                        ",
"              ......                        ",
"              ......                        ",
"              ......                        ",
"              ......                        ",
"              ......                        ",
"              ......                        ",
"              ......                        ",
"              ......                        ",
"              ......                        ",
"              ......                        ",
"              ......                        ",
"              ......                        ",
"              ......                        ",
"              ......                        ",
"              ......                        ",
"              ......                        "
};
