/* XPM */
static char *_79f62efc6d4406bd8c86fd088a172c9rrv6Gcj88s2T5SsX[] = {
/* columns rows colors chars-per-pixel */
"44 44 2 1 ",
"  c None",
". c #2196F3",
/* pixels */
"....................................        ",
"....................................        ",
"....................................  ..    ",
"....................................  ..    ",
"....................................  ......",
"....................................  ......",
"....................................  ..  ..",
"....................................  ..  ..",
"....................................      ..",
"....................................      ..",
"                                          ..",
"                                          ..",
"                                      ....  ",
"                                      ....  ",
"                                  ....      ",
"                                  ....      ",
"                              ....          ",
"                              ....          ",
"                          ....              ",
"                          ....              ",
"                      ....                  ",
"                      ....                  ",
"                ......                      ",
"                ......                      ",
"                ..                          ",
"                ..                          ",
"              ......                        ",
"              ......                        ",
"              ......                        ",
"              ......                        ",
"              ......                        ",
"              ......                        ",
"              ......                        ",
"              ......                        ",
"              ......                        ",
"              ......                        ",
"              ......                        ",
"              ......                        ",
"              ......                        ",
"              ......                        ",
"              ......                        ",
"              ......                        ",
"              ......                        ",
"              ......                        "
};
