/* XPM */
static char *_77b1573cb514bcb87197ae33edc011ePupYsccJLVH3WE3D[] = {
/* columns rows colors chars-per-pixel */
"46 34 10 1 ",
"  c None",
". c black",
"X c gray13",
"o c #455A64",
"O c #D32F2F",
"+ c #FF5722",
"@ c #FFEB3B",
"# c #607D8B",
"$ c #00B0FF",
"% c gray98",
/* pixels */
"++++                                          ",
"++++                                          ",
"@@++++                                        ",
"@@++++                                        ",
"OOOO++++    oooo                              ",
"OOOO++++    oooo                              ",
"@@@@OO@@++##oo##oo                            ",
"@@@@OO@@++##oo##oo                            ",
"@@OO@@++++##oo####..                          ",
"@@OO@@++++##oo####..                          ",
"OO++++      oo  ####..                        ",
"OO++++      oo  ####..                        ",
"++        oooooo%%%%##....................    ",
"++        oooooo%%%%##....................    ",
"++        ##%%%%%%%%####################....  ",
"++        ##%%%%%%%%####################....  ",
"          XXXX%%%%%%%%%%%%%%%%%%%%%%$$$$##....",
"          XXXX%%%%%%%%%%%%%%%%%%%%%%$$$$##....",
"          XXXX%%%%%%%%%%%%%%%%%%%%%%$$$$%%....",
"          XXXX%%%%%%%%%%%%%%%%%%%%%%$$$$%%....",
"          ##%%%%%%%%%%%%%%%%%%%%%%%%%%%%....  ",
"          ##%%%%%%%%%%%%%%%%%%%%%%%%%%%%....  ",
"++++      oooooo%%%%##XX..................    ",
"++++      oooooo%%%%##XX..................    ",
"@@++++++    oo%%%%##XX                        ",
"@@++++++    oo%%%%##XX                        ",
"@@OO@@@@++##oo%%##XX                          ",
"@@OO@@@@++##oo%%##XX                          ",
"OO@@OOOO++##oo##oo                            ",
"OO@@OOOO++##oo##oo                            ",
"++++++      oooo                              ",
"++++++      oooo                              ",
"++                                            ",
"++                                            "
};
