/* XPM */
static char *_26ff99cc4cf4c13830239594b2f61e4FGzVeRh0m5LtSwEu[] = {
/* columns rows colors chars-per-pixel */
"34 46 10 1 ",
"  c None",
". c black",
"X c gray13",
"o c #455A64",
"O c #D32F2F",
"+ c #FF5722",
"@ c #FFEB3B",
"# c #607D8B",
"$ c #00B0FF",
"% c gray98",
/* pixels */
"                ....              ",
"                ....              ",
"              ........            ",
"              ........            ",
"            ....##%%....          ",
"            ....##%%....          ",
"            ..##$$$$%%..          ",
"            ..##$$$$%%..          ",
"            ..##$$$$%%..          ",
"            ..##$$$$%%..          ",
"            ..##%%%%%%..          ",
"            ..##%%%%%%..          ",
"            ..##%%%%%%..          ",
"            ..##%%%%%%..          ",
"            ..##%%%%%%..          ",
"            ..##%%%%%%..          ",
"            ..##%%%%%%..          ",
"            ..##%%%%%%..          ",
"            ..##%%%%%%..          ",
"            ..##%%%%%%..          ",
"            ..##%%%%%%..          ",
"            ..##%%%%%%..          ",
"            ..##%%%%%%XX          ",
"            ..##%%%%%%XX          ",
"          ..####%%%%%%##XX        ",
"          ..####%%%%%%##XX        ",
"        ..##%%%%%%%%%%%%##XX      ",
"        ..##%%%%%%%%%%%%##XX      ",
"      oo####%%%%%%%%%%%%%%##oo    ",
"      oo####%%%%%%%%%%%%%%##oo    ",
"    oo####  oo%%%%%%%%oo%%%%##oo  ",
"    oo####  oo%%%%%%%%oo%%%%##oo  ",
"    oooooooooo%%XXXX%%oooooooooo  ",
"    oooooooooo%%XXXX%%oooooooooo  ",
"      ####  oo##XXXX##oo  ####    ",
"      ####  oo##XXXX##oo  ####    ",
"      ++++                ++++    ",
"      ++++                ++++    ",
"    ++@@++              ++@@OO    ",
"    ++@@++              ++@@OO    ",
"  ++++OO@@++            ++@@OO++  ",
"  ++++OO@@++            ++@@OO++  ",
"++++OO@@OO++          ++++OO@@++  ",
"++++OO@@OO++          ++++OO@@++  ",
"++@@OO@@@@OO++++      ++@@@@OO++++",
"++@@OO@@@@OO++++      ++@@@@OO++++"
};
