/* XPM */
static char *_b6f9af56c174eb882db4a76613995b2e7loKvoWetZ1T8ai[] = {
/* columns rows colors chars-per-pixel */
"46 34 10 1 ",
"  c None",
". c black",
"X c gray13",
"o c #455A64",
"O c #D32F2F",
"+ c #FF5722",
"@ c #FFEB3B",
"# c #607D8B",
"$ c #00B0FF",
"% c gray98",
/* pixels */
"                                            ++",
"                                            ++",
"                              oooo      ++++++",
"                              oooo      ++++++",
"                            oo##oo##++OOOO@@OO",
"                            oo##oo##++OOOO@@OO",
"                          XX##%%oo##++@@@@OO@@",
"                          XX##%%oo##++@@@@OO@@",
"                        XX##%%%%oo    ++++++@@",
"                        XX##%%%%oo    ++++++@@",
"    ..................XX##%%%%oooooo      ++++",
"    ..................XX##%%%%oooooo      ++++",
"  ....%%%%%%%%%%%%%%%%%%%%%%%%%%%%##          ",
"  ....%%%%%%%%%%%%%%%%%%%%%%%%%%%%##          ",
"....%%$$$$%%%%%%%%%%%%%%%%%%%%%%XXXX          ",
"....%%$$$$%%%%%%%%%%%%%%%%%%%%%%XXXX          ",
"....##$$$$%%%%%%%%%%%%%%%%%%%%%%XXXX          ",
"....##$$$$%%%%%%%%%%%%%%%%%%%%%%XXXX          ",
"  ....####################%%%%%%%%##        ++",
"  ....####################%%%%%%%%##        ++",
"    ....................##%%%%oooooo        ++",
"    ....................##%%%%oooooo        ++",
"                        ..####  oo      ++++OO",
"                        ..####  oo      ++++OO",
"                          ..####oo##++++@@OO@@",
"                          ..####oo##++++@@OO@@",
"                            oo##oo##++@@OO@@@@",
"                            oo##oo##++@@OO@@@@",
"                              oooo    ++++OOOO",
"                              oooo    ++++OOOO",
"                                        ++++@@",
"                                        ++++@@",
"                                          ++++",
"                                          ++++"
};
