/* XPM */
static char *d34b8276e21e44b5dc76b185e36b6ce4myBe4RvcoRiiEAEN[] = {
/* columns rows colors chars-per-pixel */
"34 46 10 1 ",
"  c None",
". c black",
"X c gray13",
"o c #455A64",
"O c #D32F2F",
"+ c #FF5722",
"@ c #FFEB3B",
"# c #607D8B",
"$ c #00B0FF",
"% c gray98",
/* pixels */
"++++OO@@@@++      ++++OO@@@@OO@@++",
"++++OO@@@@++      ++++OO@@@@OO@@++",
"  ++@@OO++++          ++OO@@OO++++",
"  ++@@OO++++          ++OO@@OO++++",
"  ++OO@@++            ++@@OO++++  ",
"  ++OO@@++            ++@@OO++++  ",
"    OO@@++              ++@@++    ",
"    OO@@++              ++@@++    ",
"    ++++                ++++      ",
"    ++++                ++++      ",
"    ####  oo##XXXX##oo  ####      ",
"    ####  oo##XXXX##oo  ####      ",
"  oooooooooo%%XXXX%%oooooooooo    ",
"  oooooooooo%%XXXX%%oooooooooo    ",
"  oo##%%%%oo%%%%%%%%oo  ####oo    ",
"  oo##%%%%oo%%%%%%%%oo  ####oo    ",
"    oo##%%%%%%%%%%%%%%####oo      ",
"    oo##%%%%%%%%%%%%%%####oo      ",
"      XX##%%%%%%%%%%%%##..        ",
"      XX##%%%%%%%%%%%%##..        ",
"        XX##%%%%%%####..          ",
"        XX##%%%%%%####..          ",
"          XX%%%%%%##..            ",
"          XX%%%%%%##..            ",
"          ..%%%%%%##..            ",
"          ..%%%%%%##..            ",
"          ..%%%%%%##..            ",
"          ..%%%%%%##..            ",
"          ..%%%%%%##..            ",
"          ..%%%%%%##..            ",
"          ..%%%%%%##..            ",
"          ..%%%%%%##..            ",
"          ..%%%%%%##..            ",
"          ..%%%%%%##..            ",
"          ..%%%%%%##..            ",
"          ..%%%%%%##..            ",
"          ..%%$$$$##..            ",
"          ..%%$$$$##..            ",
"          ..%%$$$$##..            ",
"          ..%%$$$$##..            ",
"          ....%%##....            ",
"          ....%%##....            ",
"            ........              ",
"            ........              ",
"              ....                ",
"              ....                "
};
