/* XPM */
static char *_87a1a64fa304a7beaad6d25675e373bEyeNw5BRU9sNTts9[] = {
/* columns rows colors chars-per-pixel */
"50 50 2 1 ",
"  c #C62828",
". c white",
/* pixels */
"..................................................",
".                                                .",
".                                                .",
".                                                .",
".                                                .",
".                                                .",
".                                                .",
".                                                .",
".                                                .",
".                                                .",
".                                                .",
".                                                .",
".                                                .",
".                                                .",
".                                                .",
".                                                .",
".                                                .",
".                                                .",
".                                                .",
".                                                .",
".                                                .",
".                                                .",
".                                                .",
".                                                .",
".                                                .",
".                                                .",
".                                                .",
".                                                .",
".                                                .",
".                                                .",
".                                                .",
".                                                .",
".                                                .",
".                                                .",
".                                                .",
".                                                .",
".                                                .",
".                                                .",
".                                                .",
".                                                .",
".                                                .",
".                                                .",
".                                                .",
".                                                .",
".                                                .",
".                                                .",
".                                                .",
".                                                .",
".                                                .",
".................................................."
};
