/* XPM */
static char *_9c7aca23b1f4659828de12d5db6efdd33WPpQLE2u1ESSDu[] = {
/* columns rows colors chars-per-pixel */
"38 34 2 1 ",
"  c None",
". c #EEEEEE",
/* pixels */
"                  ..                  ",
"                  ..                  ",
"                ......                ",
"                ......                ",
"                ......                ",
"                ......                ",
"              ..........              ",
"              ..........              ",
"              ..........              ",
"              ..........              ",
"......................................",
"......................................",
"  ..................................  ",
"  ..................................  ",
"    ..............................    ",
"    ..............................    ",
"      ..........................      ",
"      ..........................      ",
"        ......................        ",
"        ......................        ",
"        ......................        ",
"        ......................        ",
"        ......................        ",
"        ......................        ",
"      ..........................      ",
"      ..........................      ",
"      ..........................      ",
"      ..........................      ",
"      ........          ........      ",
"      ........          ........      ",
"    ......                  ......    ",
"    ......                  ......    ",
"    ....                      ....    ",
"    ....                      ....    "
};
