/* XPM */
static char *_85a2a62cfe64558b3bc6c412c659183oiaJhgMNEIWvGuaU[] = {
/* columns rows colors chars-per-pixel */
"50 50 76 1 ",
"  c black",
". c #010101",
"X c #020201",
"o c #040403",
"O c #060704",
"+ c #060605",
"@ c #070705",
"# c #0B0C09",
"$ c #0E0F0B",
"% c #0F100C",
"& c #10110C",
"* c #141610",
"= c #161711",
"- c #171712",
"; c #171812",
": c #181913",
"> c #1A1A15",
", c #1A1B15",
"< c #1E1F18",
"1 c #1F2019",
"2 c #21221A",
"3 c #21221B",
"4 c #22231B",
"5 c #22221C",
"6 c #22231C",
"7 c #292A22",
"8 c #2A2B22",
"9 c #2B2C24",
"0 c #2E2F25",
"q c #303127",
"w c #333429",
"e c #32342A",
"r c #33352B",
"t c #3E4033",
"y c #3F4134",
"u c #414335",
"i c #414236",
"p c #424435",
"a c #434437",
"s c #4A4C3E",
"d c #4C4E3F",
"f c #4D4F40",
"g c #4F5141",
"h c #505243",
"j c #535645",
"k c #545647",
"l c #565848",
"z c #575A48",
"x c #5B5E4A",
"c c #5D5F4D",
"v c #5E614D",
"b c #616450",
"n c #636651",
"m c #676956",
"M c #686B56",
"N c #6C6E5A",
"B c #6F715D",
"V c #797C64",
"C c #797C65",
"Z c #7A7D64",
"A c #7B7D64",
"S c #7A7D65",
"D c #7B7E65",
"F c #7B7E66",
"G c #7D8167",
"H c #81846A",
"J c #888C70",
"K c #909477",
"L c #95997A",
"P c #A4A986",
"I c #A4AB87",
"U c #AAAF8B",
"Y c #B3B893",
"T c #BABF99",
"R c #BFC69D",
"E c #C2C69D",
/* pixels */
"                                                  ",
"                                                  ",
"                                                  ",
"                                                  ",
"                                                  ",
"                                                  ",
"                    q1                            ",
"                    sr                            ",
"                    gp;=                          ",
"                  nDULmh                          ",
"                    dr                            ",
"                    se                            ",
"                    :$                            ",
"                                    &             ",
"                                    S             ",
"                                    S             ",
"          :                      8NBRSD4          ",
"          S                      +=%H             ",
"          D                         S             ",
"       0SSEDS2                      b             ",
"        o G                                       ",
"          D                                       ",
"          c                                       ",
"                                                  ",
"                                                  ",
"                                                  ",
"                        z                         ",
"                        D                         ",
"         66            +K8e+                      ",
"         uy          ySDYkd$                      ",
"         au             D                         ",
"       vDPPGM           D                         ",
"         uy             >                         ",
"         uy                                       ",
"         >>                                       ",
"                                      j           ",
"                                      S           ",
"                                      J68%        ",
"                                   1SSTvl6        ",
"                                      S           ",
"                                      S           ",
"                                      1           ",
"                                                  ",
"                                                  ",
"                                                  ",
"                                                  ",
"                                                  ",
"                                                  ",
"                                                  ",
"                                                  "
};
